
<svg width="8px" height="12px" viewBox="0 0 8 12" version="1.1" xmlns="http://www.w3.org/2000/svg" xmlns:xlink="http://www.w3.org/1999/xlink">
    <!-- Generator: Sketch 46.2 (44496) - http://www.bohemiancoding.com/sketch -->
    <desc>Created with Sketch.</desc>
    <defs></defs>
    <g id="Page-1" stroke="none" stroke-width="1" fill="none" fill-rule="evenodd">
        <g id="2" transform="translate(-1020.000000, -23.000000)" fill-rule="nonzero" fill="#9AA5B5">
            <g id="Bookmark-01-01" transform="translate(1020.000000, 23.000000)">
                <path d="M7.56995932,11.9233743 L4.00008345,8.34936537 L0.43020758,11.9233743 C0.359901136,11.9964221 0.25250604,12.0197582 0.15827825,11.9824622 C0.0640504602,11.9451662 0.00162832596,11.8546154 0.000222531003,11.7531834 L0.000222531003,0.921033135 C-0.00515952983,0.678620208 0.0872770081,0.444266979 0.256640742,0.270939168 C0.426004475,0.0976113572 0.65799884,-5.98498711e-05 0.900191238,2.75146646e-08 L7.09997566,2.75146646e-08 C7.3404049,-1.48314426e-05 7.57084402,0.0962858275 7.7399113,0.267429553 C7.90897859,0.438573279 8.0026158,0.670329168 7.99994437,0.911021905 L7.99994437,11.7531834 C7.99853857,11.8546154 7.93611644,11.9451662 7.84188865,11.9824622 C7.74766086,12.0197582 7.64026576,11.9964221 7.56995932,11.9233743 Z" id="Shape"></path>
            </g>
        </g>
    </g>
</svg>