
<svg width="22px" height="16px" viewBox="0 0 22 16" version="1.1" xmlns="http://www.w3.org/2000/svg" xmlns:xlink="http://www.w3.org/1999/xlink">
    <!-- Generator: Sketch 46.2 (44496) - http://www.bohemiancoding.com/sketch -->
    <desc>Created with Sketch.</desc>
    <defs></defs>
    <g id="Page-1" stroke="none" stroke-width="1" fill="none" fill-rule="evenodd">
        <g id="1" transform="translate(-20.000000, -21.000000)" fill="#4D5969">
            <path d="M25.0582646,36.9015351 C24.9943607,36.9623628 24.9090947,37 24.8154299,37 L20.3593223,37 C20.1608551,37 20,36.8321534 20,36.625339 C20,36.5221219 20.0401681,36.4285993 20.1051675,36.3611185 L27.9138543,29.28609 C27.9921822,29.2174687 28.0418446,29.1146318 28.0418446,28.9996293 C28.0418446,28.8908997 27.9972945,28.7931951 27.9264525,28.724954 L20.12726,21.6600002 C20.0492973,21.5913789 20,21.4891122 20,21.3744899 C20,21.1678656 20.1608551,21.000019 20.3593223,21.000019 L24.8154299,21.000019 C24.9094598,21.000019 24.995091,21.0374661 25.0589949,21.0988641 L33.4654566,28.7171604 C33.5415935,28.7855917 33.5896127,28.8865277 33.5896127,28.9996293 C33.5896127,29.112921 33.5414109,29.2146174 33.4649089,29.2834288 L25.0582646,36.9015351 Z M36.9382664,36.8922969 L32.6148962,32.9744191 C32.5362032,32.9052275 32.4865408,32.8025807 32.4865408,32.6873881 C32.4865408,32.590634 32.5219618,32.5024337 32.5798404,32.4359033 L34.8049729,30.4194632 C34.8707026,30.344379 34.9656454,30.2970474 35.0711781,30.2970474 C35.170503,30.2970474 35.260151,30.3388664 35.3253329,30.4061571 L41.8584986,36.3275492 C41.9444949,36.3959804 42,36.5039496 42,36.6254151 C42,36.8320394 41.8391449,36.9998859 41.6406777,36.9998859 L37.1902302,36.9998859 C37.0921834,36.9998859 37.0030832,36.9588272 36.9382664,36.8922969 Z M36.9382664,21.107399 C37.0030832,21.0410587 37.0921834,21 37.1902302,21 L41.6406777,21 C41.8391449,21 42,21.1678466 42,21.3744709 C42,21.4959363 41.9444949,21.6037155 41.8584986,21.6721467 L35.3253329,27.5935387 C35.260151,27.6610195 35.170503,27.7028386 35.0711781,27.7028386 C34.9656454,27.7028386 34.8707026,27.6556971 34.8049729,27.5804227 L32.5798404,25.5639826 C32.5219618,25.4974522 32.4865408,25.409252 32.4865408,25.3124978 C32.4865408,25.1974954 32.5362032,25.0946584 32.6148962,25.025657 L36.9382664,21.107399 Z" id="Logo"></path>
        </g>
    </g>
</svg>