
<svg width="12px" height="12px" viewBox="0 0 12 12" version="1.1" xmlns="http://www.w3.org/2000/svg" xmlns:xlink="http://www.w3.org/1999/xlink">
    <!-- Generator: Sketch 46.2 (44496) - http://www.bohemiancoding.com/sketch -->
    <desc>Created with Sketch.</desc>
    <defs></defs>
    <g id="Page-1" stroke="none" stroke-width="1" fill="none" fill-rule="evenodd">
        <g id="2" transform="translate(-1048.000000, -23.000000)" fill-rule="nonzero" fill="#9AA5B5">
            <g id="Search" transform="translate(1048.000000, 23.000000)">
                <path d="M7.29289322,8.70710678 L10.2928932,11.7071068 C10.6834175,12.0976311 11.3165825,12.0976311 11.7071068,11.7071068 C12.0976311,11.3165825 12.0976311,10.6834175 11.7071068,10.2928932 L8.70710678,7.29289322 C8.31658249,6.90236893 7.68341751,6.90236893 7.29289322,7.29289322 C6.90236893,7.68341751 6.90236893,8.31658249 7.29289322,8.70710678 Z" id="Line"></path>
                <path d="M5,8 C6.65685425,8 8,6.65685425 8,5 C8,3.34314575 6.65685425,2 5,2 C3.34314575,2 2,3.34314575 2,5 C2,6.65685425 3.34314575,8 5,8 Z M5,10 C2.23857625,10 0,7.76142375 0,5 C0,2.23857625 2.23857625,0 5,0 C7.76142375,0 10,2.23857625 10,5 C10,7.76142375 7.76142375,10 5,10 Z" id="Oval"></path>
            </g>
        </g>
    </g>
</svg>